<svg id="Capa_1" data-name="Capa 1" xmlns="http://www.w3.org/2000/svg" viewBox="0 0 1080 890.04"><defs><style>.cls-1{fill:#fff;}.cls-2,.cls-3,.cls-4{fill:none;stroke-miterlimit:10;}.cls-2,.cls-4{stroke:#fff;}.cls-2,.cls-3{stroke-width:3.6px;}.cls-3{stroke:#000;}.cls-4{stroke-width:1.14px;}</style></defs><path class="cls-1" d="M84.69,79a11,11,0,0,1,1.52-1.8l-.3-.31a10.51,10.51,0,0,1-3-5.74,9.87,9.87,0,0,1-.16-1.7,10.49,10.49,0,0,1,2.8-7.12,12.08,12.08,0,0,1,6.46-3.69l.67-.12c.12,0,.19,0,.21.13.11.68.23,1.36.34,2l.27,1.72c.06.3,0,.31-.27.38a7,7,0,0,0-5.56,4.81c-1.2,3.69,1.33,7.61,5.42,8.47a7.94,7.94,0,0,0,1.68.19,7.56,7.56,0,0,0,5.38-2.18,6.48,6.48,0,0,0,1.92-3.73,6.88,6.88,0,0,0-5.81-7.56c-.27-.05-.28-.07-.23-.33.15-.93.29-1.86.44-2.79.06-.34.12-.69.17-1,0-.13.09-.14.21-.12a12.13,12.13,0,0,1,5,2A10.62,10.62,0,0,1,106.8,69a10,10,0,0,1-1.39,5.63A10.25,10.25,0,0,1,103.6,77c-.14.14-.16.22,0,.38.43.47.83,1,1.24,1.45,0,0,0,.09.1.18A34.31,34.31,0,0,1,84.69,79Z"/><path class="cls-1" d="M106,75.49a10.5,10.5,0,0,0,0-12c.3,0,.61,0,.9,0s.88,0,1.32.11c.94.11,1.88.21,2.81.37a32.22,32.22,0,0,1,6.79,2,33.47,33.47,0,0,1,5.74,3,.61.61,0,0,1,0,1,37,37,0,0,1-4.21,2.38c-.19.09-.27.06-.39-.1a11.79,11.79,0,0,0-6-4.43l-.33-.1a2,2,0,0,0,0,.2c0,.91,0,1.83,0,2.74a.32.32,0,0,0,.17.29,11.6,11.6,0,0,1,3,2.53c.18.21.18.23-.09.32a32.18,32.18,0,0,1-5.84,1.36c-.84.11-1.69.17-2.54.25l-1.05.07A2.42,2.42,0,0,1,106,75.49Z"/><path class="cls-1" d="M73.7,73.7l.26-.34a12.41,12.41,0,0,1,2.86-2.43.3.3,0,0,0,.16-.22c0-.95,0-1.89,0-2.84,0,0,0-.07,0-.14l-.75.26a11.79,11.79,0,0,0-5.5,4.23c-.17.23-.17.23-.43.11A31.77,31.77,0,0,1,66.1,70a.54.54,0,0,1,0-1,31.81,31.81,0,0,1,5-2.72,30.82,30.82,0,0,1,6.4-2c1.14-.23,2.29-.39,3.44-.54.74-.1,1.49-.11,2.24-.16l.38,0,.06,0a10.44,10.44,0,0,0,0,12A33.7,33.7,0,0,1,73.7,73.7Z"/><path class="cls-1" d="M99.34,69.47a4.55,4.55,0,1,1-4.5-4.21A4.35,4.35,0,0,1,99.34,69.47Z"/><path d="M351.51,324.82l.95,24.77,498.25-1.33-3.34-109.7s-6.2-9.73-11.92,0S793,328.36,649.5,335,362,323.93,362,323.93Z"/><rect class="cls-2" x="65.44" y="93.92" width="937.37" height="444.11"/><rect class="cls-3" x="110.25" y="108.07" width="847.73" height="411.37" rx="14.24"/><rect x="230.88" y="817.14" width="605.05" height="41.14" rx="7.35"/><path d="M454.74,603.34V807.71H615.41V603.34Zm78.75,137.27c-19.44,0-35.2-14.26-35.2-31.85s15.76-31.84,35.2-31.84,35.2,14.26,35.2,31.84S552.93,740.61,533.49,740.61Z"/><path d="M1020.68,24.91H50.42c-14.1,0-25.51,10.59-25.51,23.67V582.92c0,8.43,7.36,15.26,16.44,15.26h988.39c9.09,0,16.45-6.83,16.45-15.26V48.58C1046.19,35.5,1034.76,24.91,1020.68,24.91Zm2.15,510.47c0,12.21-10.68,22.1-23.85,22.1H68.3c-13.17,0-23.85-9.89-23.85-22.1V65.61c0-12.21,10.68-22.12,23.85-22.12H999c13.17,0,23.85,9.91,23.85,22.12Z"/><path class="cls-4" d="M1022.83,65.61V535.38c0,12.21-10.68,22.1-23.85,22.1H68.3c-13.17,0-23.85-9.89-23.85-22.1V65.61c0-12.21,10.68-22.12,23.85-22.12H999C1012.15,43.49,1022.83,53.4,1022.83,65.61Z"/><path d="M362,461.45c-9.74,17.15-29.15,28.83-51.5,28.83a62.3,62.3,0,0,1-17.31-2.43L301.87,463a32.63,32.63,0,0,0,8.63,1.15,31.35,31.35,0,0,0,25.94-13.2Z"/><path d="M368.73,436.24A50.38,50.38,0,0,1,365,455.37L339.46,445.2a26.69,26.69,0,0,0,1.8-9.62,25,25,0,0,0-.41-4.6l26.64-5.88A50.51,50.51,0,0,1,368.73,436.24Z"/><path d="M365.87,419.52l-26.61,6C335.15,415.37,325,408,312.89,407.14l-.09-24.86C337.65,383.16,358.51,398.51,365.87,419.52Z"/><path d="M295.6,460.53l-9,25c-20.22-8.46-34.29-27.34-34.29-49.26,0-28.57,23.93-52,54.2-53.88l.13,24.92c-15.15,1.78-26.86,13.79-26.86,28.3C279.74,446.33,286.15,455.68,295.6,460.53Z"/><path d="M729.13,461.45c-9.75,17.15-29.15,28.83-51.5,28.83a62.3,62.3,0,0,1-17.31-2.43L669,463a32.63,32.63,0,0,0,8.63,1.15,31.38,31.38,0,0,0,25.94-13.2Z"/><path d="M735.85,436.24a50.37,50.37,0,0,1-3.75,19.13L706.59,445.2a26.68,26.68,0,0,0,1.79-9.62A25,25,0,0,0,708,431l26.65-5.88A50.51,50.51,0,0,1,735.85,436.24Z"/><path d="M733,419.52l-26.61,6C702.28,415.37,692.14,408,680,407.14l-.09-24.86C704.78,383.16,725.64,398.51,733,419.52Z"/><path d="M662.73,460.53l-9,25c-20.23-8.46-34.29-27.34-34.29-49.26,0-28.57,23.92-52,54.19-53.88l.14,24.92c-15.15,1.78-26.86,13.79-26.86,28.3C646.87,446.33,653.28,455.68,662.73,460.53Z"/><rect x="135.68" y="152.01" width="123.97" height="42.46"/><rect x="268.55" y="152.01" width="123.97" height="42.46"/><rect x="401.41" y="152.01" width="123.97" height="42.46"/><rect x="531.74" y="152.01" width="123.97" height="42.46"/><rect x="665.24" y="152.01" width="123.97" height="42.46"/><rect x="798.1" y="152.01" width="123.97" height="42.46"/></svg>