<svg id="Capa_1" data-name="Capa 1" xmlns="http://www.w3.org/2000/svg" viewBox="0 0 1064.68 739.91"><path d="M430.13,452.9c-.42,11.83-5.56,21.57-15.55,27.49-10.18,6-21.81,4.16-30.64-5.7-16.17-18.06-31.91-36.63-47.82-55q-32-36.9-63.87-73.82c-15.14-17.55-15.36-34.18-.39-51.56Q326.34,231.13,381,168.2c13.15-15.12,28.91-16.16,40.53-3.18,12,13.45,11.43,32.17-2,47.77-27.66,32.19-55.28,64.44-83.41,96.08-7.15,8-8.42,12.73-.45,21.6,28.28,31.45,55.69,63.95,83.55,95.91C425.48,433.49,429.81,441.38,430.13,452.9Z"/><path d="M649,155.94c8.89.43,15.24,3.92,20.6,10.12,37.73,43.62,75.64,87.05,113.17,130.91,12.25,14.31,12.26,31.56.11,45.75q-56.32,65.76-113.24,130.82c-12,13.67-27.63,13.57-38.79.88-11.55-13.13-11.56-31.39.72-45.76q43-50.3,86.62-99.91c6.05-6.85,6.34-10.66.08-17.73-29.44-33.26-58.39-67.1-87.41-100.85-8.65-10.06-11.06-22.07-6-35.16C629.74,162.62,638.6,156.61,649,155.94Z"/><path d="M594.82,186.91c.31,5.91-1.58,11.27-3.24,16.63Q551.85,331.48,512,459.36c-6.15,19.68-20.69,28.53-35.84,22.4s-22-23.65-16-43.13q40.15-129.86,80.76-259.52c5.26-16.78,17.83-25.44,31-22.66C584.68,159.12,594.56,172.28,594.82,186.91Z"/><path d="M527.37,584.25c-121.37,0-242.75-1-364.09.66-34.51.48-47.55-8.37-47.1-44.7q2.77-223,.15-446.11c-.41-40.07,14.11-55,54.79-54.84q354.67,1.59,709.36,0c39.55-.19,56.27,11.46,55.77,53-1.8,148.69-2.23,297.43.28,446.1.69,41-15.41,47.17-51.35,46.61C765.93,583.09,646.64,584.25,527.37,584.25Zm-2.9-45.45c104.74,0,209.49-1.31,314.19.71,36.64.71,51.89-7.18,51-47.46-2.64-119.85-2.13-239.82-.23-359.71.57-35.28-11-45.5-46.23-45.27q-317.33,2.07-634.66-.16c-38.36-.31-44,14.69-43.61,47.2,1.56,119.9,1.8,239.84-.11,359.73-.55,34.7,9.21,46.48,45.48,45.73C315,537.38,419.74,538.79,524.47,538.8Z"/><path d="M1038,638.13c-9.7,63.6-34.9,56.35-56.77,56.38q-452.14.75-904.29.32c-22.72,0-46.17,2.71-62.26-56.7Z"/></svg>