<svg id="Capa_1" data-name="Capa 1" xmlns="http://www.w3.org/2000/svg" viewBox="0 0 1080 736.85"><defs><style>.cls-1,.cls-2,.cls-4,.cls-5,.cls-6,.cls-7{fill:none;stroke-miterlimit:10;}.cls-1,.cls-2,.cls-4,.cls-7{stroke:#fff;}.cls-1{stroke-width:13.55px;}.cls-2{stroke-width:6.78px;}.cls-3{fill:#fff;}.cls-4{stroke-width:0.29px;}.cls-5,.cls-6{stroke:#000;}.cls-5{stroke-width:37.24px;}.cls-6{stroke-width:18.62px;}.cls-7{stroke-width:0.81px;}</style></defs><path class="cls-1" d="M323.88-41.67h85a0,0,0,0,1,0,0V183.15a0,0,0,0,1,0,0H304.92a0,0,0,0,1,0,0V-22.71A19,19,0,0,1,323.88-41.67Z"/><rect class="cls-2" x="332.33" y="10.17" width="47.96" height="0.87"/><rect class="cls-2" x="332.33" y="31.57" width="47.96" height="0.87"/><ellipse class="cls-3" cx="355.88" cy="146.24" rx="10.71" ry="11.14"/><rect class="cls-3" x="72.68" y="176.42" width="157.97" height="10.46" rx="1.89"/><path class="cls-3" d="M131.13,122.05v52h42v-52ZM151.69,157c-5.08,0-9.19-3.63-9.19-8.1s4.11-8.1,9.19-8.1,9.19,3.63,9.19,8.1S156.76,157,151.69,157Z"/><path class="cls-3" d="M278.89-25H25.57c-3.68,0-6.66,2.69-6.66,6V116.85a4.1,4.1,0,0,0,4.29,3.89H281.25a4.11,4.11,0,0,0,4.3-3.89V-19C285.55-22.36,282.56-25,278.89-25Zm.56,129.81c0,3.11-2.79,5.63-6.23,5.63h-243c-3.43,0-6.22-2.52-6.22-5.63V-14.7c0-3.11,2.79-5.63,6.22-5.63h243c3.44,0,6.23,2.52,6.23,5.63Z"/><path class="cls-4" d="M279.45-14.7V104.76c0,3.11-2.79,5.63-6.23,5.63h-243c-3.43,0-6.22-2.52-6.22-5.63V-14.7c0-3.11,2.79-5.63,6.22-5.63h243C276.66-20.33,279.45-17.81,279.45-14.7Z"/><path class="cls-5" d="M822.42,54.53h220.2a0,0,0,0,1,0,0v648a0,0,0,0,1,0,0H770.32a0,0,0,0,1,0,0V106.63A52.1,52.1,0,0,1,822.42,54.53Z"/><rect class="cls-6" x="844.38" y="144.76" width="125.67" height="2.52"/><rect class="cls-6" x="842.14" y="203.93" width="125.67" height="2.52"/><rect class="cls-6" x="842.14" y="265.62" width="125.67" height="2.52"/><ellipse cx="903.85" cy="596.11" rx="28.05" ry="32.1"/><rect x="161.78" y="683.1" width="413.93" height="30.15" rx="5.2"/><path d="M314.93,526.4V676.19H424.85V526.4ZM368.8,627c-13.3,0-24.08-10.45-24.08-23.34s10.78-23.34,24.08-23.34,24.08,10.45,24.08,23.34S382.1,627,368.8,627Z"/><path d="M702.1,102.43H38.32a17.39,17.39,0,0,0-17.45,17.34V511.42a11.21,11.21,0,0,0,11.24,11.19H708.3a11.21,11.21,0,0,0,11.25-11.19V119.77A17.39,17.39,0,0,0,702.1,102.43Zm1.47,374.15a16.26,16.26,0,0,1-16.31,16.2H50.55a16.26,16.26,0,0,1-16.32-16.2V132.26A16.27,16.27,0,0,1,50.55,116H687.26a16.27,16.27,0,0,1,16.31,16.22Z"/><path class="cls-7" d="M703.57,132.26V476.58a16.26,16.26,0,0,1-16.31,16.2H50.55a16.26,16.26,0,0,1-16.32-16.2V132.26A16.27,16.27,0,0,1,50.55,116H687.26A16.27,16.27,0,0,1,703.57,132.26Z"/></svg>