<svg id="Capa_1" data-name="Capa 1" xmlns="http://www.w3.org/2000/svg" viewBox="0 0 1080 697.02"><path d="M352.58,295.83c0-9.28-.24-17.88.06-26.46.45-13.1,9.8-22.8,22.46-23.8A23.52,23.52,0,0,1,400,265c1.1,6.89.53,14.09.67,21.14.06,2.92,0,5.85,0,9.67h6.18c22.52,0,45-.08,67.56,0,22.35.1,41.41,8.76,56.41,26.33a69.09,69.09,0,0,1,16.9,44.95q.53,53.88,0,107.77c-.17,19.75-7.45,36.92-20.87,50.35-12.63,12.63-27.88,20.3-45.53,21.53-3.68.25-7.38.29-11.07.29-111.67,0-223.34-.15-335,.15-21.32.06-40.06-6.4-55.74-21.38-13.12-12.54-20.9-28.94-21.26-47.7-.72-37.68-1.19-75.42.07-113.06C59.52,331,83,306.46,112.11,298.65c7.93-2.13,16.41-2.68,24.64-2.71,69.41-.2,138.81-.11,208.21-.11Zm-49,40.72H199.72c-28.34,0-56.68.32-85-.13-12.11-.2-27.92,12.38-27.78,28.82.32,37.64-.11,75.28.34,112.92a30.33,30.33,0,0,0,5.24,16.41c6.8,9.23,16.37,12.26,27.44,12.24q183.38-.37,366.75-.19c3.43,0,7,.06,10.25-.89,13.24-3.88,21.77-12.72,21.84-27.67.18-37.64.12-75.28,0-112.92,0-7.53-2-14.69-7.34-19.71-6.78-6.35-14.66-9.09-23.94-9C426.21,336.7,364.88,336.55,303.55,336.55Z"/><path d="M374.38,48.4c30.37.55,57.81,5.46,84.27,16.46,21.45,8.91,41.64,20.12,59,36.34,10.73,10,20.6,21.12,30.75,31.86a74.63,74.63,0,0,1,8.23,10.08,25.85,25.85,0,0,1-.72,30.09c-6.06,8.16-19,12.12-28.08,7.55-4.79-2.41-9.75-6-12.84-10.42a158.51,158.51,0,0,0-49.52-46.22c-46.08-27.38-94.63-33-145.15-15.35-22.35,7.81-42.63,19.56-59.7,36.87-8.47,8.59-16.21,18-23.93,27.43-6.89,8.37-18.47,12.3-28,7.9-11.34-5.23-16.68-12-16.36-24.42.17-6.39,2-12.29,7.18-16.42a9.94,9.94,0,0,0,1.75-2.26c13.92-20.48,31.7-36.73,51.4-50.3,31.58-21.76,66.31-34.68,104-38C363.19,49,369.83,48.7,374.38,48.4Z"/><path d="M379.92,147.1c28.19.71,56.29,10.58,79.64,33.47a150.68,150.68,0,0,1,16.2,18.2,25.75,25.75,0,0,1-3.92,35.15c-10.27,8.52-25.29,6.72-33.95-3.81a120.65,120.65,0,0,0-12.28-13.33c-22.19-19.88-47.2-24.09-74.55-14.59-13.23,4.6-23.71,13.14-32.34,24.6-8.32,11-18.65,14.72-29.68,11a24.86,24.86,0,0,1-12.1-38.32c12-16.87,27-30.15,45.28-39.25C339.58,151.56,357.69,147.28,379.92,147.1Z"/><path d="M327.52,446.77c-14.08-.08-24.62-10.91-24.57-25.26s10.89-25.53,24.77-25.13c12.27.36,24.9,10.06,24.76,25.36C352.35,435.53,341.1,446.85,327.52,446.77Z"/><path d="M425.09,446.77c-11.65.81-24.56-13.38-24.45-25.22s12.49-25.61,25.15-25.28c14.25.37,24.77,11.43,24.46,26C450,436.51,439.21,447,425.09,446.77Z"/><path d="M626,285.49c0,24.13.72,48.3-.31,72.39-.54,12.81,4.05,15.56,15.92,15.28,32.45-.76,64.93-.17,97.39-.33,7,0,12.18.07,12.12,9.78-.06,9.37-4.67,10.21-12,10.17-33.45-.18-66.9.18-100.34-.24-9.33-.11-13.06,2.46-13,12.43.41,49.75,0,99.5.3,149.24.13,21.2,11.7,32.23,33.48,32.4q52.4.39,104.78,0c8.57-.07,13.71.91,13.55,11.73-.16,10.56-5.83,10.49-13.28,10.46-32-.15-64.07-1.77-95.9.38-37.88,2.56-62.82-30-62.05-62.66,1.06-44.8.27-89.64.26-134.46,0-19.11,0-18.87-19.1-19.48-5.51-.18-13.75,3.62-14.66-7-.65-7.68,0-14,10.43-12.69,3.39.44,6.93-.32,10.32.13,10.45,1.39,13.32-3.15,13.22-13.32-.47-45.8-.23-91.61-.19-137.42,0-10.84.29-21.86,4.86-31.82,8.7-19,23.2-30.29,44.79-30.38,36.4-.16,72.8-.05,109.2-.07,5.94,0,11.77-1,11.93,8.43.17,10.23-6.21,9.26-12.71,9.26-34.43,0-68.87-.12-103.3,0-23.56.11-35.26,11.58-35.64,35.41C625.68,237.22,626,261.35,626,285.49Z"/><path d="M908.27,192.75c-30.11,0-60.21-.26-90.31.17-8.93.12-13.1-1.12-12.91-11.24.69-35.74.63-71.5.06-107.24-.18-11,4.62-13.76,15.08-13.71q88.72.39,177.45,0c9.59,0,14.39,2.18,14.22,12.69q-.83,54.38,0,108.76c.12,8.81-3,10.85-11.7,10.72C969.54,192.48,938.9,192.75,908.27,192.75Zm1.38-114.67c-25.63,0-51.26.15-76.89-.09-6.94-.06-11.13.49-11,8.42.48,27.38.35,54.77.07,82.15-.07,6.39,2.28,8.44,9.47,8.41q76.89-.34,153.78,0c7.84,0,10.55-2.28,10.48-9.22-.28-26.93-.33-53.87,0-80.81.1-7.24-3-9.09-10.58-9C959.91,78.3,934.78,78.08,909.65,78.08Z"/><path d="M1030,207c-2.3,25.24-8.29,22.36-13.48,22.38q-107.38.29-214.78.12c-5.39,0-11,1.08-14.78-22.5Z"/><path d="M909.22,415.17c-30.1,0-60.21-.27-90.3.16-8.93.13-13.1-1.11-12.91-11.23.69-35.74.63-71.5,0-107.24-.17-11,4.63-13.76,15.08-13.71q88.74.39,177.46,0c9.58,0,14.38,2.17,14.22,12.69-.56,36.25-.5,72.51,0,108.75.12,8.82-3,10.86-11.69,10.73C970.49,414.9,939.86,415.17,909.22,415.17Zm1.39-114.67c-25.63,0-51.27.14-76.89-.09-7-.07-11.14.49-11,8.42.49,27.38.36,54.77.07,82.15-.06,6.38,2.28,8.44,9.48,8.4q76.89-.33,153.78,0c7.84,0,10.55-2.28,10.47-9.22-.27-26.93-.33-53.88.05-80.81.1-7.25-3-9.09-10.58-9C960.87,300.71,935.73,300.5,910.61,300.5Z"/><path d="M1030.94,429.42c-2.31,25.25-8.29,22.37-13.49,22.38q-107.38.3-214.77.13c-5.4,0-11,1.08-14.79-22.51Z"/><path d="M910.18,636.65c-30.1,0-60.21-.27-90.31.16-8.92.13-13.1-1.12-12.9-11.23.69-35.74.62-71.5,0-107.25-.17-11,4.63-13.75,15.08-13.71q88.73.4,177.45,0c9.59,0,14.39,2.17,14.23,12.69q-.84,54.36,0,108.75c.12,8.82-3,10.85-11.7,10.73C971.45,636.38,940.81,636.65,910.18,636.65ZM911.56,522c-25.63,0-51.26.14-76.89-.09-6.94-.07-11.13.49-11,8.41.48,27.38.36,54.78.07,82.16-.07,6.38,2.28,8.44,9.48,8.4q76.89-.35,153.78,0c7.84,0,10.54-2.28,10.47-9.22-.28-26.94-.33-53.88,0-80.81.1-7.25-2.95-9.09-10.58-9C961.82,522.19,936.69,522,911.56,522Z"/><path d="M1031.89,650.9c-2.3,25.25-8.29,22.37-13.48,22.38q-107.38.3-214.78.13c-5.39,0-11,1.08-14.78-22.51Z"/></svg>