<svg id="Capa_1" data-name="Capa 1" xmlns="http://www.w3.org/2000/svg" viewBox="0 0 1080 834.89"><path d="M41,425.76c0-122.45.28-244.91-.37-367.37C40.57,44.15,44.21,40,61.09,40.13q178,1.08,356,0c15.79-.08,19.46,3.8,19.43,17.34q-.71,368.19,0,736.39c0,13.45-3.47,17.48-19.36,17.4q-178.92-.93-357.83,0c-15,.07-18.63-3.68-18.57-16.49C41.23,671.78,41,548.77,41,425.76Zm195.73,151.4c42.41,0,84.82.09,127.24,0,25.2-.07,38.1-10.45,38.93-30.85.73-18.1-13.54-29.83-38-29.89q-126.3-.33-252.6,0c-23.33.06-37.77,11.25-38.14,28.28-.46,20.79,13.33,32.39,39.05,32.46C154.42,577.25,195.58,577.16,236.75,577.16Zm2.7-167.91c41.79,0,83.57.07,125.36,0,24.76-.06,37.86-11,38.13-31.39.23-17.6-13.59-28.77-37-28.81q-127.23-.25-254.46,0c-22.89,0-37.42,11.56-37.32,28.69.13,20.37,13.3,31.45,38,31.52C154.63,409.33,197,409.25,239.45,409.25Zm-.2-145.61c-42.49,0-85,.7-127.46-.27-24.53-.56-35.42,10.64-37.24,32.28-1.39,16.43,14.34,28,36,28.05q128.4.21,256.81,0C389,323.64,403,312,402.93,295.11c-.07-20.11-12.7-31.32-36.21-31.42C324.23,263.51,281.74,263.64,239.25,263.64Zm.63,228c41.76,0,83.53.12,125.29-.05,23.17-.09,38.68-11.23,37.5-28.38-1.56-22.49-13.37-32.28-37.21-32.1q-126.22.92-252.45,0c-26-.23-36.7,9.93-38.44,32.72-1.28,16.85,14.91,27.74,38.15,27.81C155.1,491.76,197.49,491.67,239.88,491.67ZM238,181.22c-42.4,0-84.81-.15-127.22.06-22.6.11-37.1,12.06-36.52,29.35.68,20,13.17,30.64,36.87,30.67q127.22.16,254.44,0c24.57,0,37.68-11.41,37.37-31.86-.27-17.54-14.08-28.1-37.72-28.19C322.81,181.1,280.4,181.22,238,181.22Zm1.25-25.29c42.39,0,84.79.16,127.18-.06,23-.12,37.08-11.74,36.49-29.23-.68-20.15-13-30.76-36.69-30.79q-127.19-.15-254.37,0c-24.71,0-37.76,11.26-37.62,31.8.11,17.08,14.64,28.16,37.82,28.24C154.44,156,196.84,155.93,239.24,155.93Zm.15,519.51c-23.69-.34-42.78,15.72-43.55,36.64-.88,24.15,17.74,42.5,43,42.35,23.89-.14,42.17-16.9,43-39.4C282.57,693.55,263.55,675.79,239.39,675.44Z"/><path d="M196.56,551.25c-25.58,0-51.17.09-76.75-.07-5.81,0-14.06,1.63-13.36-7.09.55-6.94,7.57-6,13-6q78.63-.08,157.26,0c6.07,0,14-1.05,13.44,7.27-.46,7-7.78,5.79-13.12,5.81C250.23,551.31,223.4,551.25,196.56,551.25Z"/><path d="M357.68,544.21c-1-6.65,2.91-8.22,9.66-8.45,8.71-.28,9.93,3.65,9.93,10s-3.06,8.12-9.92,8.31C358.65,554.31,356.75,550.56,357.68,544.21Z"/><path d="M326.39,534.83c6.38.74,10.61,3.83,10.68,9.41.08,6.29-4,10.38-11.54,9.94-6.54-.39-9.8-4.2-9.54-9.92S320.07,535.54,326.39,534.83Z"/><path d="M196.68,383.54c-26.15,0-52.3.06-78.45-.06-5.35,0-12.35.89-12-6.65.31-7,6.82-6.71,12.44-6.71q79.38-.06,158.76,0c6.38,0,13.74-.06,12.93,7.91-.73,7.15-8.2,5.4-13.36,5.44C250.22,383.64,223.45,383.54,196.68,383.54Z"/><path d="M337.31,377.21c-1.05,5.19-3.74,9.08-10.61,9.13-6.68.06-10.47-3.09-10.7-8.81-.27-6.47,3.79-10.45,11.14-10.15C333.43,367.64,336.84,371.48,337.31,377.21Z"/><path d="M376.87,377.56c1,6.29-2.11,8.34-9.3,8.57-8.79.28-9.86-3.42-10-9.81-.17-7.24,4.32-7.48,10.5-7.67C375.74,368.4,377.78,371.66,376.87,377.56Z"/><path d="M197.45,301.12c-25.51,0-51,.16-76.53-.11-5.5-.06-14.06,2.64-14.57-5.77-.48-7.88,7.31-7.52,13.5-7.53q78.39-.09,156.78,0c6.1,0,14-.61,13.65,7.35-.37,8.45-8.91,5.88-14.44,5.94C249.71,301.26,223.58,301.12,197.45,301.12Z"/><path d="M325.57,285c6.43.51,11,3.06,11.47,8.77.48,6.32-3.1,10.38-10.82,10.33-6.7,0-10.07-3.44-10.27-9.18S319.67,286.18,325.57,285Z"/><path d="M376.76,294.42c1.11,7-2,9.05-9.19,9.28-8.79.28-9.86-3.41-10-9.8-.17-7.24,4.31-7.56,10.5-7.66C375.48,286.12,378.32,288.82,376.76,294.42Z"/><path d="M197.5,468.82c-26.21,0-52.42.08-78.63-.06-5.24,0-12.46,1.44-12.51-6.12,0-7,6.57-6.95,12.23-6.95q79.56-.07,159.12,0c5.58,0,12.3-.3,12.53,6.66.24,7.53-6.9,6.4-12.25,6.42C251.16,468.88,224.33,468.82,197.5,468.82Z"/><path d="M376.91,462.4c1.06,7.14-2.36,9-9.36,9.25-8.57.26-10.13-3.28-10.13-9.75,0-6.3,2.67-8.51,9.72-8.54C375.28,453.32,378.63,456.08,376.91,462.4Z"/><path d="M325.67,452.7c6.38.34,10.88,3.18,11.38,8.73.57,6.25-3.09,10.49-10.75,10.52-6.69,0-10.11-3.56-10.34-9.23S319.42,453.79,325.67,452.7Z"/><path d="M197.55,216c-26.16,0-52.31.07-78.46-.06-5.35,0-12.59,1.06-12.93-6-.39-8.1,7.35-7.49,13.45-7.5q78.46-.14,156.92,0c6.07,0,14.09-.79,13.87,7.12-.22,8.13-8.65,6.35-14.39,6.4C249.86,216.12,223.7,216,197.55,216Z"/><path d="M337.15,210c-.78,4.93-3.65,8.48-10.52,8.48-6.68,0-10.43-3-10.63-8.72-.23-6.55,4-10.21,11.27-9.91C333.6,200.15,337.07,203.78,337.15,210Z"/><path d="M367.52,217.78c-8.6,1.28-9.63-2.52-10-8.33-.45-7.93,4.29-8.41,11.32-8.53,8.67-.15,7.82,4.59,8.15,9.59C377.48,217.48,373.54,219.09,367.52,217.78Z"/><path d="M198,133.58c-25.61,0-51.23.14-76.84-.1-5.69,0-14.22,2.28-14.89-5.83-.68-8.34,7.8-7.08,13.65-7.09q78.72-.19,157.44,0c5.36,0,12.67-1,13,6.06.44,8.65-7.92,6.85-13.67,6.89C250.47,133.68,224.22,133.58,198,133.58Z"/><path d="M337.23,126.87c-.37,5.26-3,9-9.77,9.42-6.47.35-10.78-2.22-11.43-8-.73-6.46,3-10.39,10.43-10.55C333,117.61,336.47,121,337.23,126.87Z"/><path d="M376.84,127.25c1.15,6.28-1.83,8.6-9.12,8.47-6.48-.11-10.19-.88-10.19-7.83s2-9.66,10.37-9.45C375.37,118.62,377.85,121.17,376.84,127.25Z"/><path d="M530,325.48c0,28.33.87,56.69-.38,85-.66,15,4.95,18.26,19.44,17.93,39.64-.89,79.31-.19,119-.39,8.61-.05,14.88.08,14.81,11.49-.08,11-5.71,12-14.65,11.93-40.85-.22-81.72.21-122.57-.28-11.38-.14-15.95,2.89-15.85,14.59.5,58.38,0,116.77.37,175.16.16,24.87,14.3,37.83,40.9,38q64,.47,128,0c10.46-.08,16.75,1.07,16.55,13.78-.2,12.38-7.12,12.31-16.22,12.27-39.06-.17-78.25-2.08-117.13.44-46.28,3-76.75-35.22-75.8-73.54,1.3-52.57.33-105.2.32-157.81,0-22.43,0-22.15-23.33-22.86-6.73-.21-16.8,4.24-17.9-8.24-.8-9,0-16.5,12.74-14.9,4.13.52,8.46-.37,12.59.15,12.78,1.64,16.28-3.69,16.15-15.62-.57-53.76-.27-107.53-.23-161.29,0-12.73.36-25.65,5.93-37.35,10.63-22.27,28.35-35.55,54.72-35.66,44.46-.18,88.92-.06,133.38-.07,7.26,0,14.37-1.12,14.57,9.89.21,12-7.58,10.87-15.52,10.86-42.06,0-84.12-.14-126.18,0-28.78.13-43.07,13.59-43.53,41.56C529.6,268.83,530,297.16,530,325.48Z"/><path d="M874.76,216.64c-36.77,0-73.54-.31-110.31.19-10.9.15-16-1.31-15.76-13.18.84-42,.76-83.92.07-125.87-.22-12.93,5.65-16.15,18.42-16.09q108.38.47,216.75,0c11.7,0,17.57,2.54,17.37,14.89-.68,42.54-.61,85.1,0,127.64.15,10.35-3.7,12.74-14.28,12.59C949.6,216.32,912.18,216.64,874.76,216.64Zm1.69-134.58c-31.31,0-62.61.16-93.92-.11-8.48-.08-13.6.58-13.42,9.88.59,32.13.43,64.28.08,96.42-.08,7.49,2.78,9.9,11.58,9.86q93.91-.39,187.83,0c9.58,0,12.88-2.68,12.8-10.82-.35-31.61-.41-63.23.05-94.85.12-8.5-3.61-10.66-12.92-10.54C937.84,82.31,907.14,82.06,876.45,82.06Z"/><path d="M1023.43,233.37c-2.81,29.63-10.13,26.25-16.47,26.27q-131.18.35-262.34.14c-6.59,0-13.39,1.27-18.06-26.41Z"/><path d="M875.93,477.68c-36.77,0-73.55-.31-110.31.2-10.9.15-16-1.31-15.76-13.19.84-41.94.76-83.92.06-125.87-.21-12.93,5.66-16.14,18.42-16.09q108.38.47,216.76,0c11.7,0,17.57,2.55,17.37,14.89q-1,63.83,0,127.65c.14,10.34-3.7,12.73-14.28,12.59C950.77,477.37,913.35,477.68,875.93,477.68Zm1.69-134.58c-31.31,0-62.62.17-93.92-.11-8.48-.07-13.6.58-13.43,9.88.6,32.14.44,64.29.09,96.43-.08,7.49,2.78,9.9,11.57,9.86q93.92-.41,187.84,0c9.58,0,12.88-2.68,12.79-10.82-.34-31.62-.4-63.24.06-94.85.12-8.51-3.62-10.67-12.93-10.55C939,343.35,908.31,343.1,877.62,343.1Z"/><path d="M1024.6,494.41c-2.82,29.63-10.13,26.26-16.47,26.27q-131.18.36-262.34.15c-6.59,0-13.4,1.27-18.06-26.42Z"/><path d="M877.1,737.63c-36.77,0-73.55-.31-110.31.19-10.9.15-16-1.31-15.76-13.18.84-41.95.76-83.92.06-125.87-.21-12.93,5.65-16.15,18.42-16.09q108.38.47,216.76,0c11.7,0,17.56,2.55,17.37,14.89-.69,42.54-.62,85.1,0,127.64.14,10.35-3.7,12.74-14.29,12.59C951.94,737.31,914.51,737.63,877.1,737.63Zm1.69-134.58c-31.31,0-62.62.16-93.92-.11-8.48-.08-13.6.58-13.43,9.88.59,32.13.44,64.28.09,96.42-.08,7.49,2.78,9.9,11.57,9.86q93.92-.39,187.84,0c9.57,0,12.88-2.68,12.79-10.82-.34-31.61-.4-63.23,0-94.84.13-8.51-3.61-10.67-12.92-10.55C940.18,603.3,909.48,603.05,878.79,603.05Z"/><path d="M1025.77,754.36c-2.82,29.63-10.13,26.25-16.47,26.27q-131.17.35-262.34.14c-6.59,0-13.4,1.27-18.07-26.41Z"/></svg>